<!-- prettier-ignore -->
<svg xmlns="http://www.w3.org/2000/svg" aria-hidden="true" overflow="hidden" style="position:absolute;width:0;height:0">
  <defs>
    <symbol id="icon-burger" viewBox="0 0 50 32">
      <path fill="currentColor" stroke-linecap="round" stroke-width=".889" d="M41.956 8.889H7.823m34.133-7.111H7.823M41.956 16H7.823"/>
    </symbol>
    <symbol id="icon-search" viewBox="0 0 32 32">
      <path d="M13.333 21.383a7.9 7.9 0 0 1 .005-15.802 7.902 7.902 0 0 1 .005 15.802zm0-1.729a6.124 6.124 0 1 0-.009 0z"/>
      <path d="M13.116 8.691c-.247.148-.237.652.01.79.109.049.395.099.642.099.415 0 .681.079 1.531.484.464.217 1.353 1.116 1.56 1.57.316.721.425 1.067.484 1.6.069.602.178.79.444.79.514 0 .632-.77.286-1.867-.306-.958-.662-1.541-1.353-2.183-.81-.761-1.807-1.235-2.746-1.323-.425-.04-.761-.02-.859.04zm6.558 11.171c-.277.277-.514.523-.514.553 0 .069 1.343 1.64 1.886 2.193.079.089.365.425.642.751 1.857 2.252 2.341 2.765 2.805 2.943.464.188.484.188.919-.01.346-.158.494-.286.612-.563.405-.978.257-1.175-2.864-3.802a44.969 44.969 0 0 1-1.037-.889 146.384 146.384 0 0 0-1.778-1.541c-.128-.109-.237-.04-.672.365z"/>
    </symbol>
    <symbol id="icon-shopbag" viewBox="0 0 25 32">
      <path d="M11.959 3.165c-1.548.282-2.864 1.415-3.358 2.893-.198.584-.232.974-.203 2.285l.025 1.152H4.451l-.049.109c-.025.064-.114.737-.198 1.499s-.193 1.761-.247 2.226a5026.753 5026.753 0 0 1-.989 8.68c-.252 2.166-.643 5.663-.643 5.747s.381.089 10.342.089h10.347l-.03-.307c-.015-.173-.143-1.291-.277-2.488-.139-1.197-.336-2.958-.445-3.907-.262-2.29-.292-2.547-.351-3.042-.03-.232-.129-1.123-.227-1.978a695.88 695.88 0 0 0-.292-2.597c-.069-.574-.188-1.662-.272-2.424s-.173-1.434-.198-1.499l-.049-.109h-3.972l.025-1.152c.015-.628.005-1.311-.02-1.508-.163-1.345-1.093-2.641-2.339-3.264a3.808 3.808 0 0 0-1.756-.43c-.341-.01-.722 0-.851.025zm1.395 1.964c.856.232 1.588.969 1.776 1.795.03.124.054.752.054 1.395v1.177h-5.045V8.319c.005-1.271.03-1.459.252-1.919.519-1.053 1.781-1.598 2.963-1.271zm-4.956 6.707c.015.46.005.495-.114.638a1.471 1.471 0 0 0-.356.875c-.04.465.069.816.356 1.133.668.742 1.746.549 2.171-.386.208-.46.099-1.222-.223-1.563-.089-.094-.094-.163-.084-.643l.015-.539h4.995l.015.539c.01.48.005.549-.084.643-.321.341-.43 1.103-.223 1.563.227.5.618.786 1.123.826 1.192.099 1.87-1.429 1.073-2.419-.148-.183-.153-.193-.139-.668l.015-.485h2.522l.084.742c.049.406.198 1.731.336 2.943.134 1.212.346 3.091.47 4.179.302 2.616.767 6.761.767 6.781 0 .01-3.803.02-8.457.02-4.649 0-8.457-.01-8.457-.02s.124-1.108.272-2.433c.153-1.33.351-3.096.445-3.927l.317-2.794c.168-1.439.534-4.699.579-5.119.015-.148.035-.302.049-.336.015-.049.292-.059 1.266-.049l1.251.015.015.485z"/>
    </symbol>
    <symbol id="icon-black-heart" viewBox="0 0 43 32">
      <path d="M17.643 1.087C8.48.922 0 15.252 24.704 30.11c.027-.049.131-.049.159 0C50.364 14.773 40.507.001 31.038 1.151c-3.692.448-5.433 2.497-6.255 4.259-.82-1.762-2.563-3.811-6.254-4.259a8.53 8.53 0 0 0-.887-.063z"/>
    </symbol>
    <symbol id="icon-logo" viewBox="0 0 26 32">
      <path d="M12.775.043c.004.036-.121.053-.491.071-2.098.11-4.135.74-5.956 1.835-.59.356-1.052.683-1.664 1.18-.452.37-1.39 1.33-1.792 1.835-.352.448-.85 1.156-1.077 1.543-.231.395-.644 1.212-.764 1.529a4.276 4.276 0 0 1-.164.373c-.082.132-.338.956-.498 1.586a12.693 12.693 0 0 0-.306 1.65c-.053.423-.078 8.011-.028 8.462.107.971.249 1.724.48 2.532.128.444.206.672.356 1.024.025.057.064.146.082.196.021.05.075.178.117.284.114.281.558 1.138.772 1.493.242.398.665 1.006 1.031 1.472.356.455 1.355 1.476 1.813 1.852 1.764 1.447 3.698 2.364 5.856 2.78.651.124.892.153 1.653.203 1.063.071 2.343.007 3.093-.16.089-.018.352-.071.587-.121.953-.188 2.005-.565 3.026-1.077.391-.196 1.308-.732 1.436-.843.028-.025.142-.103.249-.178.789-.54 1.956-1.643 2.603-2.457.352-.448.85-1.156 1.077-1.543.242-.412.644-1.216.782-1.564a2.81 2.81 0 0 1 .16-.373c.089-.114.476-1.458.633-2.204.057-.267.146-.889.171-1.202.014-.203.032-.274.071-.274.078 0 .075-7.78-.004-7.836-.036-.028-.064-.156-.085-.412-.1-1.038-.441-2.443-.804-3.289-.028-.06-.1-.235-.164-.391a16.456 16.456 0 0 0-.807-1.582 13.03 13.03 0 0 0-1.92-2.453c-.814-.821-1.536-1.404-2.443-1.963a16.252 16.252 0 0 0-1.653-.86c-.128-.053-.263-.11-.302-.128-.039-.021-.231-.092-.427-.167a13.103 13.103 0 0 0-3.716-.75c-.384-.018-.512-.036-.505-.071.004-.032-.06-.043-.242-.043s-.245.011-.238.043zm1.554.33c1.198.142 2.023.316 2.702.572.068.025.27.096.444.16.334.117.416.153.978.409.782.356 1.692.917 2.464 1.515a13.532 13.532 0 0 1 2.468 2.553c.188.263.58.846.58.864 0 .011.057.103.124.21.313.469.853 1.66 1.163 2.553.274.796.53 2.172.597 3.218.046.668.043 6.588 0 7.232-.085 1.23-.37 2.642-.718 3.541-.06.156-.149.388-.196.516-.124.324-.693 1.472-.846 1.7a2.024 2.024 0 0 0-.124.206c0 .032-.416.644-.686 1.006-1.227 1.643-3.026 3.108-4.818 3.925-.572.263-.651.295-.985.412-.174.064-.377.135-.444.16-.693.26-1.86.498-2.898.59-.501.046-1.703.046-2.204 0-1.038-.092-2.204-.331-2.898-.59a22.942 22.942 0 0 0-.444-.156c-.594-.21-1.55-.672-2.204-1.067a15.218 15.218 0 0 1-1.742-1.273 17.727 17.727 0 0 1-1.483-1.518c-.306-.37-1.06-1.433-1.06-1.49 0-.011-.057-.1-.124-.206-.313-.466-.853-1.653-1.163-2.553-.274-.796-.53-2.172-.597-3.218-.046-.668-.043-6.588 0-7.232.124-1.813.551-3.406 1.326-4.964a12.498 12.498 0 0 1 2.521-3.452c.558-.548.754-.718 1.244-1.084a16.611 16.611 0 0 1 1.291-.871c.039-.021.203-.114.366-.203.38-.213 1.216-.59 1.625-.736l.444-.16c.747-.27 1.86-.494 3.022-.604.612-.06 1.628-.043 2.276.036z"/>
      <path d="M12.071.885c-.868.053-2.027.292-2.969.608-.576.192-1.415.555-1.849.793-.729.398-1.536.946-2.151 1.458-.316.263-1.397 1.362-1.582 1.607a7.022 7.022 0 0 1-.277.352c-.121.135-.75 1.074-.864 1.284-.818 1.525-1.227 2.62-1.454 3.911-.018.096-.046.256-.068.356-.124.629-.128.811-.128 4.782 0 4.05.004 4.153.146 4.871.341 1.742.654 2.61 1.508 4.178.128.238.7 1.084.921 1.365a12.74 12.74 0 0 0 3.509 3.083c.416.245.562.32 1.223.626.857.398 2.219.804 3.093.917l.462.068c.604.1 2.507.082 3.129-.028 1.028-.181 1.191-.217 1.806-.402.743-.22 1.131-.373 2.052-.811.661-.316 1.504-.871 2.393-1.582.348-.281 1.308-1.273 1.685-1.742.306-.384.875-1.209 1.028-1.493.601-1.116 1.003-2.062 1.205-2.844.039-.156.089-.341.107-.409s.057-.252.089-.409c.032-.156.082-.388.107-.516.135-.658.142-.878.142-4.907 0-3.051-.011-3.996-.046-4.231-.341-2.233-.932-3.794-2.101-5.554a6.117 6.117 0 0 0-.37-.516 9.156 9.156 0 0 1-.274-.345c-.185-.245-1.269-1.348-1.582-1.607-.693-.576-1.739-1.273-2.347-1.561-.676-.32-.917-.427-1.173-.523a13.235 13.235 0 0 0-2.862-.722c-.452-.06-1.867-.092-2.507-.057zm2.649 1.494c.363.213.715.423.782.462.068.043.331.196.583.341l.459.267h.793c.54 0 .8.014.818.039.011.021.021.21.018.42-.004.302-.018.384-.064.42s-1.113.046-5.06.046c-4.466 0-5.006-.007-5.077-.057s-.078-.082-.078-.437c0-.32.011-.391.057-.409.032-.011.398-.021.818-.021.757 0 .768 0 .932-.092a138.66 138.66 0 0 0 1.785-1.045c.028-.021.167-.1.302-.178l.249-.142h2.027l.658.388zm7.324 2.741c.139.156.213.27.199.302-.014.046-.128.053-.69.053-.473 0-.683.014-.711.043-.032.032-.043.686-.043 2.72 0 2.61 0 2.677-.068 2.713-.039.018-.277.036-.533.036-.37 0-.473-.011-.516-.057-.05-.05-.057-.345-.057-2.713 0-2.02-.011-2.667-.043-2.699s-.423-.043-1.54-.043c-1.116 0-1.508.011-1.54.043s-.043.679-.043 2.692c0 2.414-.004 2.652-.06 2.713-.05.057-.117.064-.544.064-.327 0-.498-.014-.526-.043-.032-.032-.043-.679-.043-2.688 0-1.753-.011-2.667-.036-2.713-.036-.064-.1-.068-2.233-.068-1.66 0-2.208.011-2.24.043s-.043.686-.043 2.72c0 2.61 0 2.677-.068 2.713-.039.018-.267.036-.505.036-.356 0-.448-.011-.501-.06-.06-.053-.064-.185-.064-2.713 0-2.016-.011-2.663-.043-2.695-.06-.06-3.019-.06-3.079 0-.032.032-.043.679-.043 2.699 0 2.368-.007 2.663-.057 2.713-.043.046-.146.057-.516.057-.256 0-.494-.018-.533-.036-.068-.036-.068-.103-.068-2.716 0-2.18-.007-2.688-.046-2.72-.032-.021-.299-.043-.722-.046-.565-.011-.672-.018-.683-.064-.004-.032.089-.164.21-.295l.217-.238h17.586l.22.249zm-17.056.612c.057.043.06.153.053 1.273L5.03 8.232l-.601.011c-.459.007-.608-.004-.633-.036-.043-.071-.036-2.368.007-2.45.036-.06.082-.068.58-.068.38 0 .562.014.604.043zm2.863 0c.057.057.06 2.468.007 2.5-.021.014-.288.025-.594.025-.423 0-.562-.011-.583-.05-.046-.068-.039-2.364.004-2.45.036-.06.082-.068.58-.068.377 0 .558.014.587.043zm1.497.007c.028.032.039.398.032 1.269l-.011 1.223-.551.018c-.302.011-.58.004-.612-.011-.06-.025-.064-.121-.064-1.244 0-.903.011-1.23.043-1.262.064-.064 1.109-.06 1.163.007zm3.523-.015c.046.028.053.21.064 1.209.007.793-.004 1.195-.028 1.244-.039.071-.068.071-.988.064l-.949-.011-.011-1.241c-.007-.971.004-1.248.036-1.273.064-.039 1.813-.036 1.877.007zm2.13.015c.028.032.039.398.032 1.269l-.011 1.223-.914.011c-.885.007-.914.007-.953-.064-.025-.05-.036-.452-.028-1.244.011-.999.018-1.18.064-1.209.028-.018.434-.036.91-.036.683 0 .868.011.9.05zm2.876-.007c.032.032.043.359.043 1.262 0 1.124-.004 1.22-.06 1.244-.036.014-.313.021-.615.011l-.551-.018-.011-1.223c-.007-.871.004-1.237.032-1.269.053-.068 1.099-.071 1.163-.007zm1.501.024c.043.085.05 2.382.004 2.45-.021.039-.16.05-.583.05-.306 0-.572-.011-.594-.025-.053-.032-.05-2.443.007-2.5.028-.028.21-.043.587-.043.498 0 .544.007.58.068zm2.88 0c.043.082.05 2.379.007 2.446-.036.057-1.17.071-1.227.014-.025-.025-.039-.441-.039-1.248 0-1.024.007-1.22.053-1.248.025-.018.302-.032.608-.032.516 0 .562.004.597.068zM3.591 6.98c0 .651-.014 1.202-.032 1.227-.025.039-.59.06-1.202.043-.036 0-.046-.092-.046-.345 0-.327.007-.352.128-.576.167-.302.59-.96.789-1.23.185-.249.284-.345.331-.316.018.011.032.54.032 1.198zm19.211-.925c.228.306.644.949.821 1.273.121.224.128.249.128.576v.345l-.523.007c-.629.004-.693 0-.729-.053-.032-.05-.039-2.386-.007-2.418.046-.043.124.025.309.27zM2.076 8.334c.011.05.021.636.021 1.308-.004 1.067-.011 1.227-.06 1.28s-.117.064-.437.064c-.284 0-.395-.014-.423-.05-.089-.103.22-1.212.654-2.35.132-.348.203-.42.245-.252zM24.1 8.292c.021.025.1.213.178.42.377 1.003.686 2.13.608 2.226-.028.036-.139.05-.423.05-.324 0-.388-.011-.437-.064-.053-.06-.06-.199-.06-1.291.004-1.383.014-1.486.135-1.34zm-20.566.227c.05.046.057.206.057 1.205 0 1.006-.007 1.159-.057 1.209-.046.046-.142.053-.629.046l-.576-.011-.011-1.209c-.004-.665 0-1.23.011-1.252.011-.036.16-.046.583-.046.469 0 .576.011.622.057zm1.447-.021c.064.036.068.089.068 1.227s-.004 1.191-.068 1.227c-.039.018-.299.036-.587.036-.42 0-.523-.011-.569-.057-.05-.046-.057-.206-.057-1.191 0-.718.014-1.163.036-1.209.036-.06.082-.068.572-.068.299 0 .565.018.604.036zm2.87.007c.06.06.06 2.379 0 2.439-.028.028-.21.043-.587.043-.498 0-.544-.007-.58-.068-.05-.096-.05-2.293 0-2.389.036-.06.082-.068.58-.068.377 0 .558.014.587.043zm1.493 0c.06.06.06 2.379 0 2.439-.028.028-.21.043-.58.043s-.551-.014-.58-.043c-.057-.057-.06-2.311-.007-2.414.036-.06.082-.068.58-.068.377 0 .558.014.587.043zm3.541.035c.05.068.057.242.057 1.198 0 .992-.007 1.127-.06 1.184-.053.06-.132.064-.953.064-.647 0-.903-.011-.935-.043-.06-.06-.06-2.379 0-2.439.032-.032.288-.043.939-.043.889 0 .9 0 .953.078zm2.112-.035c.06.06.06 2.379 0 2.439-.032.032-.281.043-.896.043-.743 0-.86-.007-.917-.06-.06-.053-.064-.139-.064-1.18 0-.96.007-1.138.057-1.205.053-.078.064-.078.917-.078.622 0 .871.011.903.043zm2.887.025c.053.103.05 2.357-.007 2.414-.028.028-.21.043-.58.043s-.551-.014-.58-.043c-.06-.06-.06-2.379 0-2.439.028-.028.21-.043.587-.043.498 0 .544.007.58.068zm1.494 0c.021.046.036.487.036 1.195s-.014 1.148-.036 1.195c-.036.06-.082.068-.58.068-.377 0-.558-.014-.587-.043-.032-.032-.043-.352-.043-1.22s.011-1.188.043-1.22c.028-.028.21-.043.587-.043.498 0 .544.007.58.068zm2.858-.011c.05.046.057.206.057 1.205s-.007 1.159-.057 1.205c-.046.046-.149.057-.587.057-.459 0-.537-.007-.59-.064-.057-.053-.064-.16-.06-1.227 0-.978.011-1.173.053-1.202.028-.018.292-.032.59-.032.444 0 .548.011.594.057zm1.497 1.205v1.244l-.576.011c-.487.007-.583 0-.629-.046-.05-.05-.057-.203-.057-1.209s.007-1.159.057-1.209c.046-.046.142-.053.629-.046l.576.011v1.244zm1.33 2.134c.039.252.05.882.053 3.022l.004 2.702-1.084.021-.036-.096c-.025-.057-.036-1.056-.036-2.724 0-1.444-.007-2.642-.018-2.663-.036-.05-3.051-.043-3.104.011-.032.032-.043.679-.043 2.699 0 1.461-.011 2.681-.021 2.713-.018.05-.1.057-.544.057-.359 0-.537-.014-.565-.043-.032-.032-.043-.683-.043-2.709 0-1.468-.014-2.692-.028-2.716-.025-.036-.363-.043-1.575-.036l-1.543.011-.011 2.699c-.004 1.924-.018 2.713-.046 2.748-.032.036-.171.046-.565.046-.448 0-.53-.007-.548-.057-.011-.032-.021-1.241-.021-2.684 0-1.746-.011-2.656-.036-2.702-.036-.064-.1-.068-2.236-.068-1.799 0-2.208.007-2.24.046-.028.036-.043.825-.046 2.748l-.011 2.699-.512.011c-.334.007-.526-.004-.551-.028-.028-.028-.046-.882-.057-2.748l-.018-2.709-1.543-.011c-1.212-.007-1.55 0-1.575.036-.014.025-.028 1.248-.028 2.716 0 2.027-.011 2.677-.043 2.709-.028.028-.206.043-.565.043-.444 0-.526-.007-.544-.057-.011-.032-.021-1.252-.021-2.713 0-2.02-.011-2.667-.043-2.699-.053-.053-3.068-.064-3.104-.011-.011.018-.018 1.234-.018 2.699 0 2.059-.011 2.677-.046 2.724-.039.05-.11.057-.576.05l-.533-.011v-2.631c0-2.027.011-2.716.05-3.004.025-.206.053-.384.064-.402.007-.014 5.401-.021 11.986-.018l11.972.011.05.32zm-17.237.444c.064.036.068.089.068 1.255 0 .903-.011 1.23-.043 1.262-.028.028-.21.043-.587.043-.498 0-.544-.007-.58-.068-.043-.082-.05-2.379-.007-2.446.018-.032.185-.046.54-.057.284-.004.519-.014.526-.018s.043.011.082.028zm1.518.018c.06.021.064 2.436 0 2.5-.06.06-1.099.06-1.159 0-.032-.032-.043-.359-.043-1.262 0-1.013.007-1.22.05-1.244.05-.028 1.067-.021 1.152.007zm8.508-.018c.064.036.068.089.068 1.255 0 .903-.011 1.23-.043 1.262-.064.064-1.109.06-1.163-.007-.028-.032-.039-.398-.032-1.269l.011-1.223.533-.018c.295-.011.537-.025.544-.028s.043.011.082.028zm1.533.046c.043.068.036 2.364-.007 2.446-.036.06-.082.068-.58.068-.377 0-.558-.014-.587-.043-.032-.032-.043-.359-.043-1.262 0-1.013.007-1.22.05-1.244.082-.046 1.134-.014 1.166.036zm-15.837-.003c.032.032.043.352.043 1.223 0 1.035-.007 1.191-.057 1.241-.046.046-.142.053-.629.046l-.576-.011-.011-1.227c-.004-.676 0-1.248.011-1.269.021-.064 1.159-.064 1.22-.004zm1.494 1.198c.007.871-.004 1.237-.032 1.269-.032.039-.171.05-.604.05-.519 0-.565-.004-.601-.068-.039-.075-.053-2.336-.014-2.436.021-.05.1-.057.633-.05l.608.011.011 1.223zm7.868-1.145c.021.057.032.526.025 1.244-.011.978-.018 1.156-.064 1.184-.057.039-1.771.05-1.863.014-.05-.018-.057-.164-.057-1.255 0-.679.011-1.248.025-1.259.011-.014.444-.025.96-.025h.935l.039.096zm2.123 1.145c.007.871-.004 1.237-.032 1.269-.032.039-.217.05-.9.05-.476 0-.882-.018-.91-.036-.046-.028-.053-.206-.064-1.184-.007-.722.004-1.188.025-1.248l.039-.092.914.007.917.011.011 1.223zm7.239-1.184c.039.1.025 2.361-.014 2.436-.036.064-.082.068-.597.068-.306 0-.583-.018-.612-.036-.046-.028-.053-.203-.05-1.22 0-.654.011-1.212.025-1.244.021-.053.096-.06.626-.06.516 0 .604.007.622.057zm1.461 1.223v1.262l-.576.011c-.487.007-.583 0-.629-.046-.05-.05-.057-.206-.057-1.241 0-.882.011-1.191.043-1.223s.206-.043.633-.036l.587.011v1.262zM3.548 15.118c.064.064.06 2.336-.004 2.421-.039.057-.11.06-.629.053l-.587-.011-.011-1.209c-.004-.665 0-1.23.011-1.252.021-.064 1.159-.064 1.22-.004zm1.458-.014c.032.025.043.299.036 1.255l-.011 1.223-.587.011c-.519.007-.59.004-.629-.053-.064-.085-.068-2.357-.004-2.421.05-.05 1.116-.06 1.195-.014zm2.87 1.234v1.244l-.583.011c-.444.007-.59-.004-.615-.036-.032-.057-.039-2.425-.004-2.46.014-.011.288-.018.612-.014l.59.011v1.244zm1.504-.071c.004.644 0 1.209-.011 1.252-.018.082-.028.082-.601.082-.498 0-.587-.007-.604-.057-.028-.078-.028-2.414.004-2.446.014-.011.288-.018.612-.014l.59.011.011 1.173zm3.52-1.149c.064.064.06 2.336 0 2.421-.043.057-.135.06-.988.053l-.942-.011-.011-1.209c-.004-.665 0-1.23.011-1.252.021-.064 1.867-.068 1.931-.004zm2.122 1.22v1.244l-.907.011c-.821.007-.91.004-.949-.053-.064-.085-.068-2.357-.004-2.421.032-.032.274-.043.953-.036l.907.011v1.244zm2.891-.071c.004.644 0 1.209-.011 1.252-.018.082-.028.082-.601.082-.498 0-.587-.007-.604-.057-.028-.078-.028-2.414.004-2.446.014-.011.288-.018.612-.014l.59.011.011 1.173zm1.479-1.135c.032.085.025 2.372-.007 2.425-.025.032-.171.043-.615.036l-.583-.011-.011-1.209c-.004-.665 0-1.23.011-1.252.011-.036.164-.046.601-.046.498 0 .587.007.604.057zm2.859-.014c.057.057.06 2.311.007 2.414-.036.064-.082.068-.622.068-.42 0-.59-.011-.608-.043-.039-.06-.043-2.343-.007-2.421.028-.053.092-.06.608-.06.405 0 .594.014.622.043zm1.482 1.22v1.244l-.587.011c-.519.007-.59.004-.629-.053-.064-.085-.068-2.357-.004-2.421.032-.032.206-.043.633-.036l.587.011v1.244zm1.369 1.849c.053.068.028 1.529-.032 2.009-.156 1.159-.27 1.657-.612 2.649-.281.828-.377 1.035-.448.964-.018-.014-.032-.839-.036-1.828-.007-1.564-.018-1.835-.068-2.034-.196-.743-.811-1.244-1.525-1.244-.295 0-.53.071-.782.231a1.75 1.75 0 0 0-.7.871c-.082.231-.082.245-.1 2.304-.014 1.788-.025 2.076-.071 2.105-.071.046-.96.046-1.031 0-.046-.028-.057-.316-.071-2.123-.021-2.268-.014-2.165-.224-2.556-.089-.171-.398-.494-.587-.612a1.49 1.49 0 0 0-1.532-.018c-.377.22-.704.686-.786 1.113-.021.11-.036 1.003-.036 2.155 0 1.739-.007 1.97-.057 2.02-.043.046-.146.057-.516.057-.256 0-.494-.018-.533-.036-.064-.036-.068-.092-.068-1.628 0-1.234-.011-1.657-.053-1.884-.164-.932-.885-1.746-1.728-1.945-.299-.071-.768-.068-1.02.004-.654.188-1.131.59-1.468 1.234-.26.498-.252.452-.277 2.4-.021 1.682-.025 1.756-.089 1.806-.053.036-.185.05-.505.05-.412 0-.441-.004-.491-.078-.05-.071-.057-.324-.057-2.023 0-1.134-.014-2.02-.036-2.13-.107-.569-.576-1.102-1.109-1.259-.757-.22-1.547.185-1.884.971l-.117.27-.018 2.091c-.014 1.806-.025 2.094-.071 2.123-.028.018-.263.036-.523.036-.377 0-.48-.011-.523-.057-.05-.05-.057-.281-.057-2.016 0-2.08-.011-2.222-.174-2.542-.21-.409-.58-.74-.978-.875-.548-.181-1.259.053-1.632.533-.373.484-.38.53-.391 2.688-.004.988-.018 1.813-.036 1.828-.071.071-.22-.267-.54-1.212-.377-1.127-.583-2.439-.587-3.74 0-.334.011-.633.021-.665.021-.053 1.116-.057 12.068-.057 10.713 0 12.05.007 12.089.053zm-11.591.8c.455.117 1.006.569 1.259 1.035.153.277.263.686.292 1.081.036.423.064.409-.974.409-.505 0-.857-.014-.9-.036-.064-.036-.068-.089-.068-1.262 0-1.127.004-1.227.064-1.259.032-.021.085-.028.114-.021s.124.032.213.053zm4.409 1.226c0 .907-.011 1.191-.046 1.241-.039.057-.103.06-.587.05-.434-.007-.551-.021-.58-.064-.021-.032-.032-.327-.025-.747l.011-.693.11-.231c.128-.263.395-.58.562-.665.06-.032.192-.085.288-.121.164-.06.181-.06.224-.007.032.046.043.348.043 1.237zM3.57 19.008c.011.032.021.576.021 1.209 0 1.106-.004 1.156-.071 1.223-.064.064-.117.071-.601.071-.412 0-.537-.011-.569-.05-.032-.036-.039-.245-.032-.74.014-.807.057-.96.363-1.319.281-.331.821-.572.889-.395zm.675.046c.199.1.48.377.601.601.153.284.203.565.203 1.209v.576l-.096.039c-.114.043-1.092.028-1.138-.014-.032-.036-.06-2.311-.028-2.439.018-.075.036-.082.16-.064.078.011.213.053.299.092zm3.641 1.138c.007.871-.004 1.237-.032 1.269-.032.039-.164.05-.569.05-.444 0-.533-.011-.583-.06-.053-.053-.06-.139-.046-.736l.014-.679.132-.267c.142-.284.288-.469.487-.612.164-.117.388-.206.498-.196l.089.007.011 1.223zm.754-1.106c.235.121.555.484.654.74.057.146.071.288.082.868.007.423 0 .715-.021.747-.028.043-.146.057-.58.064-.484.011-.548.007-.587-.05-.036-.05-.046-.331-.046-1.227 0-.64.011-1.191.021-1.223.032-.082.22-.05.476.082zm4.245-.078c.011.032.021.572.021 1.202 0 .932-.011 1.159-.05 1.216-.046.064-.107.068-.882.078-.508.007-.871-.004-.928-.025-.092-.036-.096-.046-.096-.316 0-.974.636-1.884 1.511-2.162.206-.064.398-.06.423.007zm5.725.05c.352.167.686.629.768 1.063.018.103.036.437.036.736 0 .444-.011.551-.057.597s-.149.057-.58.057c-.359 0-.537-.014-.565-.043-.05-.05-.064-2.45-.014-2.496.039-.043.22-.004.412.085zm3.662-.029c.011.046.021.587.021 1.205 0 .914-.011 1.134-.05 1.191-.046.06-.096.068-.604.068-.405 0-.562-.011-.597-.046s-.046-.196-.039-.651c.004-.508.018-.64.082-.828.149-.455.476-.828.839-.96.213-.078.324-.071.348.021zm.654.018c.213.1.537.398.633.587.167.32.192.48.192 1.148 0 .452-.014.658-.043.686s-.206.043-.569.043c-.48 0-.533-.007-.597-.071-.068-.068-.071-.117-.071-1.223 0-.633.011-1.177.021-1.209.032-.085.206-.071.434.039zM9.38 22.951c.007 1.106.004 1.212-.053 1.252-.043.032-.22.046-.587.046-.48 0-.526-.007-.562-.068-.057-.11-.05-2.368.011-2.428.036-.036.174-.043.615-.028l.565.018.011 1.209zm-5.81-1.17c.036.092.025 2.34-.014 2.396-.025.043-.139.057-.555.064a5.324 5.324 0 0 1-.604-.007l-.085-.021V22.99c0-.668.011-1.23.025-1.241.011-.014.292-.025.619-.025.508 0 .597.007.615.057zm1.472 1.17c.007 1.106.004 1.212-.053 1.252-.071.057-1.067.064-1.148.011-.046-.028-.053-.206-.064-1.18-.007-.633 0-1.184.011-1.23.018-.078.021-.078.633-.071l.612.011.011 1.209zm2.844-.003c.007.86-.004 1.22-.032 1.252-.032.039-.167.05-.587.05-.501 0-.548-.007-.583-.068-.039-.075-.053-2.3-.014-2.4.021-.05.1-.057.615-.05l.59.011.011 1.205zm4.999-1.167c.011.032.021.572.021 1.205 0 .999-.007 1.159-.057 1.205-.046.05-.181.057-.907.057-.523 0-.882-.014-.924-.036-.064-.036-.068-.089-.068-1.241 0-.661.011-1.212.025-1.223.011-.014.441-.025.956-.025.818 0 .935.007.953.057zm2.183 1.17c.007 1.106.004 1.212-.053 1.252-.078.057-1.721.064-1.828.011-.064-.036-.068-.089-.068-1.241 0-.661.011-1.212.025-1.223.014-.014.448-.021.967-.018l.946.011.011 1.209zm2.831-1.17c.039.1.025 2.325-.014 2.4-.036.06-.082.068-.555.068-.288 0-.548-.018-.587-.036-.064-.036-.068-.089-.068-1.241 0-.661.011-1.212.025-1.223.011-.014.281-.025.601-.025.491 0 .58.007.597.057zm1.493 0c.039.1.025 2.325-.014 2.4-.036.06-.082.068-.58.068-.377 0-.558-.014-.587-.043-.032-.032-.043-.356-.043-1.237 0-.658.011-1.209.025-1.22.011-.014.281-.025.601-.025.491 0 .58.007.597.057zm2.884.022c.011.046.018.597.011 1.23-.011.974-.018 1.152-.064 1.18-.089.057-1.077.043-1.156-.014-.068-.046-.071-.107-.071-1.184-.004-.622.007-1.166.025-1.212.025-.078.036-.078.633-.078s.604 0 .622.078zm1.475 1.166v1.244l-.085.021a5.324 5.324 0 0 1-.604.007c-.416-.007-.53-.021-.555-.064-.053-.082-.046-2.357.007-2.411.028-.028.224-.043.64-.043h.597v1.244zm-.263 1.803c.092.036.053.128-.224.562-.395.619-.942 1.33-1.365 1.771l-.37.38-2.738.004c-1.504.004-2.77 0-2.809-.004s-.082-.025-.096-.05c-.014-.021-.028-.505-.028-1.074 0-.914-.007-1.042-.057-1.06-.032-.011-1.298-.021-2.82-.021-2.155 0-2.777.011-2.823.043-.053.043-.06.16-.068 1.095l-.011 1.049-5.547.018-.37-.38a12.672 12.672 0 0 1-1.365-1.771c-.27-.423-.313-.53-.228-.562.06-.025 20.853-.025 20.917 0zm-7.861 3.335v2.596l-.142.046c-.242.082-.523.117-.576.075-.036-.032-.046-.459-.046-2.24v-2.197l-.114-.021c-.228-.043-3.477-.004-3.506.043-.014.021-.025.996-.021 2.169.004 1.17-.011 2.165-.028 2.208-.025.075-.043.082-.181.06-.288-.043-.612-.135-.654-.188-.036-.043-.046-.608-.046-2.553 0-1.372.011-2.524.021-2.553.021-.053.277-.057 2.66-.05l2.635.011v2.596zm-2.731-1.44c.036.068.046.562.046 2.158 0 2.244.007 2.18-.188 2.18-.363-.004-1.17-.078-1.248-.11l-.092-.043v-2.108c0-1.97.004-2.112.064-2.144.036-.025.313-.036.718-.028l.654.007.046.089zm1.746 2.083.007 2.101-.092.043c-.107.046-1.23.124-1.355.092l-.082-.018v-1.774c0-1.643.004-1.774.064-1.824s.309-.192.932-.516c.167-.089.316-.174.338-.192.018-.021.068-.028.107-.025.071.011.071.036.082 2.112zm-4.601-.995c.082.032.071.181-.014.228-.046.025-.85.036-2.521.028L5.049 28l-.096-.1c-.085-.082-.092-.103-.046-.132.057-.039 5.038-.05 5.134-.014zm11.111.01c.046.028.046.043.004.092-.135.164-.103.16-2.702.16-1.625 0-2.482-.014-2.528-.036-.085-.046-.089-.164-.004-.21.078-.046 5.159-.053 5.23-.007zm-11.061 1.65c.007.953 0 1.166-.039 1.184-.028.011-.167-.014-.313-.053-1.312-.352-2.809-1.095-3.911-1.934-.356-.27-.434-.37-.306-.388.043-.007 1.088-.004 2.318.007l2.24.018.011 1.166zm10.496-1.109c-.082.149-1.049.821-1.707 1.184-.704.388-1.5.732-2.169.939-.708.22-.747.228-.804.181-.043-.032-.05-.231-.05-1.166 0-.619.014-1.145.028-1.166.021-.036.537-.046 2.304-.053a91.963 91.963 0 0 1 2.35.004c.064.011.075.025.046.078z"/>
    </symbol>
    <symbol id="icon-circle" viewBox="0 0 32 32">
      <path d="M32 16c0 8.837-7.163 16-16 16S0 24.837 0 16 7.163 0 16 0s16 7.163 16 16z"/>
    </symbol>
    <symbol id="icon-half-square-circle" viewBox="0 0 63 32">
      <path d="M48.85 31.858H.142V.141L49.7.168C57.281.651 63.293 7.554 63.293 16S57.281 31.349 49.7 31.832v.027h-.85z"/>
    </symbol>
    <symbol id="icon-pentagon" viewBox="0 0 33 32">
      <path d="M.17 17.742 9.896.155l20.209 3.356 2.763 19.661-18.501 8.796L.17 17.743z"/>
    </symbol>
    <symbol id="icon-rounded-stick" viewBox="0 0 35 32">
      <path d="M26.071 1.821 2.112 22.659c-2.331 2.228-2.79 5.596-.991 7.665s5.197 2.083 7.728.085l.006.006L33.079 9.346c2.331-2.228 2.79-5.596.991-7.665s-5.197-2.083-7.728-.085l-.005-.006-.265.23z"/>
    </symbol>
    <symbol id="icon-star" viewBox="0 0 31 32">
      <path d="M11.987 24.35 1.181 26.792 5.816 16.73.155 7.207l11.002 1.299L18.464.179l2.165 10.865 10.178 4.376-9.664 5.416-1.017 11.032-8.138-7.518z"/>
    </symbol>
    <symbol id="icon-triangle" viewBox="0 0 32 32">
      <path d="M31.634 20.539.175 31.841 5.207.068l26.427 20.47z"/>
    </symbol>
    <symbol id="icon-arrow-right-slim" viewBox="0 0 115 32">
      <path d="M113.024 17.216c.64-.64.64-1.728 0-2.432L102.208 4.032A1.674 1.674 0 0 0 99.84 6.4l9.6 9.6-9.6 9.6a1.674 1.674 0 0 0 2.368 2.368l10.816-10.752zm-109.632.512h108.416v-3.456H3.392v3.456z"/>
    </symbol>
    <symbol id="icon-plus" viewBox="0 0 30 32">
      <path fill="currentColor" stroke-linecap="round" stroke-width="2.462" d="M16 3.2v25.6M27.077 16H2.462"/>
    </symbol>
    <symbol id="icon-facebook" viewBox="0 0 32 32">
      <path d="M17.664 25.408v-8.704h2.4l.32-3h-2.72l.008-1.504c0-.784.08-1.2 1.2-1.2h1.504V8h-2.4c-2.896 0-3.912 1.456-3.912 3.904v1.8h-1.8v3h1.8v8.704h3.6z"/>
    </symbol>
    <symbol id="icon-instagram" viewBox="0 0 32 32">
      <path d="M12.482 7.518c.91-.042 1.201-.052 3.518-.052h-.002c2.318 0 2.608.01 3.518.052s1.53.186 2.074.396a4.2 4.2 0 0 1 1.511.983l.001.001c.423.416.758.92.974 1.483l.01.029c.21.542.354 1.162.397 2.071.041.91.052 1.201.052 3.518s-.011 2.608-.052 3.518c-.042.908-.186 1.528-.396 2.07a4.205 4.205 0 0 1-.985 1.511l-.001.001a4.17 4.17 0 0 1-1.482.974l-.029.01c-.542.212-1.163.355-2.072.397-.91.042-1.2.052-3.518.052s-2.608-.01-3.518-.052c-.909-.042-1.528-.185-2.072-.396A4.194 4.194 0 0 1 8.9 23.1l-.001-.001a4.183 4.183 0 0 1-.974-1.483l-.01-.029c-.211-.542-.355-1.162-.397-2.071s-.052-1.2-.052-3.518.011-2.608.052-3.518c.04-.909.184-1.528.396-2.072a4.233 4.233 0 0 1 .984-1.511l.001-.001c.416-.423.92-.758 1.483-.974l.029-.01c.542-.21 1.162-.354 2.071-.396zm3.234 1.486h-.48v-.002c-1.591.002-1.896.012-2.683.048-.832.038-1.284.177-1.584.294a2.66 2.66 0 0 0-.982.638l-.001.001a2.642 2.642 0 0 0-.632.963l-.006.018c-.117.301-.256.752-.294 1.584-.041.9-.049 1.168-.049 3.447s.008 2.549.048 3.448c.038.832.178 1.284.294 1.584.155.399.34.682.638.982s.584.483.982.638c.301.117.752.256 1.584.294.9.041 1.17.05 3.449.05s2.549-.01 3.448-.05c.832-.038 1.284-.176 1.584-.294.385-.144.713-.362.981-.638l.001-.001c.298-.298.483-.582.638-.98.117-.301.256-.752.294-1.584.041-.9.05-1.17.05-3.448s-.008-2.547-.05-3.446c-.038-.832-.177-1.284-.294-1.584a2.661 2.661 0 0 0-.638-.981l-.001-.001a2.625 2.625 0 0 0-.963-.632l-.018-.006c-.301-.117-.752-.256-1.584-.294-.9-.041-1.17-.049-3.448-.049h-.286zM11.618 16a4.382 4.382 0 0 1 8.764 0 4.382 4.382 0 0 1-8.764 0zm7.228 0a2.845 2.845 0 0 0-5.69 0 2.845 2.845 0 0 0 5.69 0zm.686-4.555a1.023 1.023 0 1 1 2.048 0 1.023 1.023 0 1 1-2.048 0z"/>
    </symbol>
    <symbol id="icon-pinterest" viewBox="0 0 32 32">
      <path d="M25.313 3.25C23.125 1.187 20.063 0 16.75 0c-5.125 0-8.25 2.063-10 3.813-2.125 2.188-3.313 5.063-3.313 7.875 0 3.563 1.5 6.313 4 7.313l.5.125c.5 0 .938-.375 1.063-.938l.375-1.438c.188-.625 0-.938-.375-1.438a4.597 4.597 0 0 1-1.062-3.198v.011c0-3.875 2.938-8.063 8.313-8.063 4.25 0 6.938 2.438 6.938 6.375 0 2.438-.563 4.75-1.5 6.438-.688 1.188-1.875 2.563-3.688 2.563-.75 0-1.5-.313-1.938-.875-.375-.563-.563-1.25-.375-1.938l.688-2.5c.5-1.438.938-2.875.938-4 0-1.875-1.188-3.188-2.938-3.188-2.25 0-4 2.25-4 5.125 0 1.438.375 2.5.563 2.938l-2.25 9.563c-.188.75-1.313 6.938.5 7.375 2.063.563 3.875-5.375 4.063-6.063l1-3.938c1 .938 2.625 1.625 4.125 1.625 2.938 0 5.563-1.313 7.438-3.688 1.75-2.313 2.75-5.563 2.75-9.125 0-2.75-1.188-5.5-3.25-7.5z"/>
    </symbol>
    <symbol id="icon-twitter" viewBox="0 0 32 32">
      <path d="M32 6.08a13.16 13.16 0 0 1-3.773 1.027 6.607 6.607 0 0 0 2.88-3.58l.013-.046a13.504 13.504 0 0 1-4.173 1.6A6.56 6.56 0 0 0 15.756 11.1l-.009-.045a18.524 18.524 0 0 1-13.48-6.819l-.027-.034a6.502 6.502 0 0 0-.888 3.299 6.568 6.568 0 0 0 2.891 5.446l.023.015a6.512 6.512 0 0 1-3.006-.83l.033.017v.08a6.575 6.575 0 0 0 5.211 6.432l.043.008a6.745 6.745 0 0 1-3.002.1l.042.007c.864 2.629 3.273 4.504 6.127 4.56h.007a13.117 13.117 0 0 1-8.147 2.814c-.554 0-1.101-.034-1.637-.101l.064.006c2.839 1.848 6.312 2.947 10.043 2.947h.025-.001c12.187 0 19.067-10.293 18.667-19.52a13.871 13.871 0 0 0 3.267-3.4z"/>
    </symbol>
  </defs>
</svg>
